<?xml version="1.0" standalone="no"?><!DOCTYPE svg PUBLIC "-//W3C//DTD SVG 1.1//EN" "http://www.w3.org/Graphics/SVG/1.1/DTD/svg11.dtd"><svg t="1727323213479" class="icon" viewBox="0 0 1024 1024" version="1.1" xmlns="http://www.w3.org/2000/svg" p-id="2076" xmlns:xlink="http://www.w3.org/1999/xlink" width="200" height="200"><path d="M452.266667 85.333333s157.866667 51.2 217.6 307.2c38.4-34.133333 34.133333-106.666667 17.066666-149.333333 55.466667 42.666667 384 473.6-64 699.733333 106.666667-128 34.133333-409.6-102.4-512 8.533333 42.666667-4.266667 157.866667-64 230.4 12.8-59.733333-8.533333-102.4-17.066666-115.2l-4.266667-4.266666v-4.266667s-12.8 68.266667-55.466667 136.533333c-38.4 64-42.666667 187.733333 46.933334 264.533334 0 0-42.666667-8.533333-64-21.333334-153.6-85.333333-209.066667-192-187.733334-320 17.066667-93.866667 85.333333-170.666667 93.866667-264.533333 25.6 51.2 29.866667 85.333333 34.133333 136.533333C384 358.4 469.333333 217.6 452.266667 85.333333z" p-id="2077" fill="#1296db"></path></svg>