<?xml version="1.0" standalone="no"?><!DOCTYPE svg PUBLIC "-//W3C//DTD SVG 1.1//EN" "http://www.w3.org/Graphics/SVG/1.1/DTD/svg11.dtd"><svg t="1727323233349" class="icon" viewBox="0 0 1024 1024" version="1.1" xmlns="http://www.w3.org/2000/svg" p-id="2259" xmlns:xlink="http://www.w3.org/1999/xlink" width="200" height="200"><path d="M529.066667 513.706667c25.6-18.773333 46.08-42.666667 63.146666-71.68 42.666667-75.093333 42.666667-167.253333 0-242.346667-42.666667-75.093333-122.88-121.173333-209.92-121.173333-134.826667 0-242.346667 109.226667-242.346666 242.346666 0 83.626667 42.666667 157.013333 107.52 201.386667-129.706667 39.253333-216.746667 133.12-226.986667 271.36-3.413333 30.72 8.533333 61.44 29.013333 85.333333s51.2 35.84 81.92 35.84h537.6c32.426667 0 63.146667-13.653333 85.333334-37.546666 22.186667-23.893333 32.426667-56.32 29.013333-88.746667-13.653333-146.773333-110.933333-240.64-254.293333-274.773333zM226.986667 232.106667c32.426667-54.613333 90.453333-88.746667 155.306666-88.746667 98.986667 0 179.2 80.213333 179.2 179.2s-80.213333 179.2-179.2 179.2c-63.146667 0-122.88-34.133333-155.306666-88.746667-32.426667-58.026667-32.426667-126.293333 0-180.906666z m442.026666 619.52H131.413333c-13.653333 0-27.306667-5.12-35.84-15.36-8.533333-10.24-13.653333-23.893333-11.946666-37.546667C95.573333 648.533333 218.453333 563.2 402.773333 563.2c182.613333 0 303.786667 81.92 319.146667 230.4v5.12c0 30.72-23.893333 52.906667-52.906667 52.906667z" fill="#1296db" p-id="2260"></path><path d="M1008.64 761.173333c-13.653333-134.826667-97.28-226.986667-226.986667-266.24 42.666667-37.546667 71.68-92.16 76.8-151.893333 8.533333-95.573333-42.666667-187.733333-129.706666-230.4-17.066667-8.533333-39.253333-1.706667-47.786667 17.066667-8.533333 17.066667-1.706667 39.253333 17.066667 47.786666 59.733333 29.013333 95.573333 93.866667 90.453333 160.426667-6.826667 64.853333-51.2 121.173333-114.346667 139.946667-18.773333-1.706667-35.84 13.653333-37.546666 32.426666-1.706667 18.773333 13.653333 35.84 32.426666 37.546667 155.306667 11.946667 254.293333 90.453333 267.946667 221.866667v5.12c0 18.773333 15.36 35.84 35.84 35.84 18.773333 0 35.84-15.36 35.84-35.84v-13.653334z" fill="#1296db" p-id="2261"></path></svg>